<?xml version="1.0" standalone="no"?>
<!DOCTYPE svg PUBLIC "-//W3C//DTD SVG 20010904//EN"
 "http://www.w3.org/TR/2001/REC-SVG-20010904/DTD/svg10.dtd">
<svg version="1.0" xmlns="http://www.w3.org/2000/svg"
 width="223.000000pt" height="53.000000pt" viewBox="0 0 223.000000 53.000000"
 preserveAspectRatio="xMidYMid meet">

<g transform="translate(0.000000,53.000000) scale(0.100000,-0.100000)"
fill="#000000" stroke="none">
<path d="M137 493 c-10 -48 -68 -193 -78 -193 -5 0 -9 -4 -9 -10 0 -5 16 -10
35 -10 32 0 35 2 30 23 -4 12 -2 35 4 50 9 24 12 25 41 15 39 -13 59 -50 40
-73 -11 -13 -5 -15 49 -15 34 0 61 4 61 10 0 6 -4 10 -10 10 -12 0 -73 196
-65 210 4 6 -12 10 -43 10 -46 0 -50 -2 -55 -27z m41 -71 c11 -32 10 -33 -11
-26 -31 9 -32 11 -18 40 14 31 14 30 29 -14z"/>
<path d="M328 508 c16 -16 16 -200 0 -216 -9 -9 1 -12 45 -12 31 0 57 5 57 10
0 6 -4 10 -10 10 -5 0 -10 20 -10 45 0 25 5 45 10 45 18 0 51 -64 45 -87 -5
-22 -3 -23 54 -23 l60 0 -40 71 -41 71 22 15 c30 21 24 65 -10 74 -14 4 -63 7
-109 8 -66 1 -82 -2 -73 -11z m139 -33 c6 -18 -23 -55 -44 -55 -8 0 -13 12
-13 35 0 31 3 35 25 35 14 0 28 -7 32 -15z"/>
<path d="M560 510 c0 -5 3 -10 8 -10 4 0 22 -24 40 -54 24 -40 32 -66 32 -100
0 -25 -4 -46 -10 -46 -5 0 -10 -4 -10 -10 0 -6 27 -10 62 -10 59 0 60 1 45 18
-36 39 -11 126 56 200 l20 22 -37 0 c-30 0 -36 -3 -28 -13 8 -9 5 -22 -10 -45
l-21 -33 -19 28 c-10 15 -17 36 -14 46 4 15 -4 17 -55 17 -33 0 -59 -4 -59
-10z"/>
<path d="M853 497 c0 -24 -58 -176 -74 -192 -17 -17 -9 -25 25 -25 34 0 35 1
30 32 -3 20 0 40 8 50 12 17 15 17 46 -2 35 -22 53 -51 34 -58 -31 -10 -6 -22
48 -22 60 0 60 0 46 23 -21 31 -74 189 -68 205 2 8 -11 12 -46 12 -45 0 -49
-2 -49 -23z m42 -79 c6 -23 4 -26 -14 -21 -23 6 -24 7 -15 41 8 27 20 19 29
-20z"/>
<path d="M1050 501 c13 -25 13 -188 0 -196 -5 -3 -10 -11 -10 -17 0 -7 31 -9
95 -6 110 6 135 20 135 74 0 26 -6 38 -27 51 -16 9 -30 18 -32 20 -3 2 5 10
17 19 12 8 22 26 22 38 0 29 -29 36 -137 36 -70 0 -73 -1 -63 -19z m135 -22
c8 -12 -23 -49 -42 -49 -8 0 -13 12 -13 30 0 25 4 30 24 30 14 0 28 -5 31 -11z
m9 -102 c13 -36 -2 -61 -38 -65 -25 -3 -26 -2 -26 48 0 50 1 51 27 48 20 -2
30 -11 37 -31z"/>
<path d="M1295 400 l0 -120 48 0 c44 0 60 11 37 25 -5 3 -10 33 -10 66 l0 60
37 -3 37 -3 -2 -55 c-2 -30 -5 -63 -8 -72 -5 -16 2 -18 45 -18 47 0 65 10 41
25 -5 3 -10 46 -10 95 0 49 5 92 10 95 24 15 6 25 -41 25 -48 0 -50 -1 -44
-22 12 -40 11 -43 -23 -46 -37 -4 -50 15 -32 47 10 20 8 21 -37 21 l-48 0 0
-120z"/>
<path d="M1640 503 c0 -27 -70 -203 -81 -203 -5 0 -9 -4 -9 -10 0 -5 16 -10
36 -10 31 0 35 2 29 21 -4 11 -2 33 5 49 11 26 14 28 42 18 37 -13 57 -51 38
-73 -11 -13 -5 -15 49 -15 33 0 61 2 61 5 0 3 -7 16 -15 29 -17 25 -65 169
-65 192 0 10 -14 14 -45 14 -36 0 -45 -3 -45 -17z m38 -81 c11 -32 10 -33 -11
-26 -30 9 -29 7 -17 39 12 32 13 31 28 -13z"/>
<path d="M1810 508 c0 -7 -3 -24 -7 -37 l-6 -24 21 21 c43 43 52 31 52 -69 0
-76 -3 -94 -17 -105 -16 -12 -9 -13 51 -14 66 0 68 1 53 18 -13 14 -17 39 -17
105 0 95 10 108 49 66 l19 -21 21 21 c42 42 51 29 51 -70 0 -76 -3 -94 -17
-105 -16 -12 -8 -13 52 -13 60 0 68 1 53 13 -15 11 -18 29 -18 105 0 72 3 91
14 91 17 0 46 -27 46 -42 0 -6 3 -9 6 -6 3 3 2 22 -1 42 l-7 36 -94 0 c-86 0
-94 -2 -94 -19 0 -11 -4 -23 -10 -26 -6 -4 -10 5 -10 19 l0 26 -95 0 c-69 0
-95 -3 -95 -12z"/>
<path d="M20 240 c0 -7 363 -10 1070 -10 707 0 1070 3 1070 10 0 7 -363 10
-1070 10 -707 0 -1070 -3 -1070 -10z"/>
<path d="M51 187 c-31 -15 -45 -56 -32 -91 18 -45 102 -62 110 -21 3 17 1 17
-12 6 -22 -17 -56 -5 -63 24 -8 33 -2 56 19 69 15 9 22 6 39 -14 l21 -25 -8
25 c-9 30 -6 26 -30 34 -11 3 -31 0 -44 -7z"/>
<path d="M190 193 c-54 -20 -66 -78 -25 -118 29 -30 58 -32 85 -5 23 23 27 78
8 102 -15 19 -47 28 -68 21z m36 -37 c9 -37 1 -81 -16 -81 -19 0 -35 45 -26
79 8 32 34 34 42 2z"/>
<path d="M1510 189 c-13 -6 -28 -15 -32 -22 -14 -22 -8 -74 10 -90 26 -24 82
-33 93 -16 15 23 10 30 -11 17 -31 -20 -55 1 -55 47 0 53 28 70 56 35 l20 -25
-7 25 c-8 30 -5 26 -29 33 -11 3 -31 1 -45 -4z"/>
<path d="M1926 179 c-18 -14 -26 -30 -26 -53 0 -48 21 -70 65 -70 44 0 65 22
65 68 0 37 -7 49 -37 65 -30 15 -36 14 -67 -10z m52 -11 c15 -15 16 -84 2 -93
-19 -12 -40 17 -40 55 0 49 13 63 38 38z"/>
<path d="M288 125 c2 -36 7 -65 11 -65 4 0 5 15 3 34 -6 53 4 65 21 26 l15
-34 15 37 c9 20 17 37 19 37 2 0 1 -22 0 -50 -4 -45 -2 -50 17 -50 19 0 21 6
21 65 0 62 -1 65 -24 65 -16 0 -26 -8 -31 -22 l-8 -23 -4 23 c-3 16 -11 22
-31 22 -27 0 -27 0 -24 -65z"/>
<path d="M430 126 c0 -59 2 -66 20 -66 15 0 20 7 20 28 0 23 7 32 36 45 54 26
43 51 -24 55 l-52 3 0 -65z m68 37 c-5 -25 -28 -28 -28 -4 0 12 6 21 16 21 9
0 14 -7 12 -17z"/>
<path d="M550 136 c0 -75 37 -108 82 -74 19 15 30 128 13 128 -6 0 -10 -26
-10 -57 0 -51 -2 -58 -20 -58 -17 0 -20 8 -23 58 -3 49 -6 57 -22 57 -17 0
-20 -7 -20 -54z"/>
<path d="M670 180 c0 -5 7 -7 16 -3 14 5 15 -3 12 -56 -3 -58 -2 -61 20 -61
20 0 22 4 22 61 0 54 2 60 15 49 12 -10 15 -10 15 4 0 13 -11 16 -50 16 -27 0
-50 -4 -50 -10z"/>
<path d="M780 125 l0 -65 50 0 c40 0 50 3 50 17 0 13 -3 14 -12 5 -7 -7 -20
-12 -30 -12 -14 0 -18 8 -18 35 0 33 2 35 20 25 15 -8 20 -8 20 1 0 6 -9 13
-20 16 -11 3 -20 12 -20 19 0 17 32 18 49 2 10 -11 11 -10 6 5 -5 12 -18 17
-51 17 l-44 0 0 -65z"/>
<path d="M900 125 c0 -58 2 -65 19 -65 15 0 21 8 24 33 l4 32 13 -32 c10 -24
21 -33 37 -33 l23 0 -19 38 c-18 35 -18 40 -4 54 24 24 7 38 -48 38 l-49 0 0
-65z m65 35 c0 -7 -6 -15 -12 -17 -8 -3 -13 4 -13 17 0 13 5 20 13 18 6 -3 12
-11 12 -18z"/>
<path d="M1090 126 l0 -66 49 0 c41 0 50 3 54 21 5 19 4 20 -12 5 -31 -28 -51
-20 -51 19 0 33 2 35 20 25 15 -8 20 -8 20 1 0 6 -9 13 -20 16 -11 3 -20 12
-20 19 0 20 37 17 50 -3 10 -16 10 -16 8 2 -3 16 -12 21 -51 23 l-47 3 0 -65z"/>
<path d="M1215 125 l0 -65 46 0 c55 0 69 13 69 60 0 47 -25 70 -76 70 l-39 0
0 -65z m78 22 c11 -34 -4 -77 -28 -77 -12 0 -15 13 -15 56 0 46 3 55 17 52 9
-2 21 -16 26 -31z"/>
<path d="M1350 137 c0 -67 24 -96 68 -81 25 9 27 15 32 72 3 38 1 62 -5 62 -6
0 -10 -26 -10 -57 0 -51 -2 -58 -20 -58 -17 0 -20 8 -23 58 -3 49 -6 57 -22
57 -17 0 -20 -7 -20 -53z"/>
<path d="M1624 125 c-15 -47 -17 -65 -8 -65 7 0 14 10 16 23 2 12 10 22 18 22
8 0 19 -10 25 -22 6 -13 19 -23 30 -23 l21 0 -20 65 c-17 51 -25 65 -41 65
-16 0 -24 -14 -41 -65z m40 -4 c-8 -9 -22 12 -17 26 6 15 7 14 13 -3 4 -10 6
-21 4 -23z"/>
<path d="M1730 180 c0 -5 7 -7 15 -4 12 5 15 -5 15 -55 0 -54 2 -61 20 -61 18
0 20 7 20 61 0 54 2 60 15 49 12 -10 15 -10 15 4 0 13 -11 16 -50 16 -27 0
-50 -4 -50 -10z"/>
<path d="M1845 125 c0 -58 2 -65 20 -65 18 0 20 7 20 65 0 58 -2 65 -20 65
-18 0 -20 -7 -20 -65z"/>
<path d="M2045 125 c0 -37 5 -67 11 -69 7 -3 9 14 6 50 -2 30 -2 54 1 54 10 0
66 -83 62 -90 -3 -5 1 -10 8 -13 9 -3 12 14 12 64 0 46 -4 69 -12 69 -6 0 -9
-9 -6 -22 l5 -23 -20 23 c-11 12 -31 22 -44 22 -22 0 -23 -4 -23 -65z"/>
<path d="M542 13 c295 -2 781 -2 1080 0 299 1 57 2 -537 2 -594 0 -838 -1
-543 -2z"/>
</g>
</svg>
