<?xml version="1.0" standalone="no"?>
<!DOCTYPE svg PUBLIC "-//W3C//DTD SVG 20010904//EN"
 "http://www.w3.org/TR/2001/REC-SVG-20010904/DTD/svg10.dtd">
<svg version="1.0" xmlns="http://www.w3.org/2000/svg"
 width="138.000000pt" height="129.000000pt" viewBox="0 0 138.000000 129.000000"
 preserveAspectRatio="xMidYMid meet">

<g transform="translate(0.000000,129.000000) scale(0.100000,-0.100000)"
fill="#000000" stroke="none">
<path d="M519 1247 c-141 -48 -244 -136 -313 -267 -83 -158 -87 -359 -10 -511
14 -28 22 -50 17 -48 -4 2 -32 17 -61 32 -30 16 -56 27 -58 24 -2 -2 5 -30 16
-62 11 -32 20 -59 20 -60 0 -2 -28 -13 -62 -26 l-61 -23 29 -13 c16 -7 64 -29
106 -48 l77 -34 -14 -42 c-8 -23 -15 -45 -15 -50 0 -10 169 -63 265 -83 111
-23 232 -29 332 -17 167 21 402 93 395 121 -16 67 -20 61 87 118 56 29 101 55
101 57 0 1 -29 13 -65 26 -48 17 -64 27 -61 38 3 9 8 38 12 64 l7 49 -54 -29
c-30 -15 -58 -30 -62 -32 -5 -2 0 14 11 36 33 64 52 155 52 250 0 164 -49 283
-165 398 -109 110 -219 155 -375 155 -61 0 -103 -7 -151 -23z m95 -39 c7 -29
7 -69 -1 -49 -5 11 -7 11 -14 0 -8 -11 -12 -10 -25 6 -16 20 -16 20 -9 -2 4
-14 2 -23 -4 -23 -12 0 -26 68 -16 78 3 4 12 -1 20 -11 12 -16 13 -16 18 3 7
27 23 25 31 -2z m84 4 c2 -7 -5 -16 -17 -19 -12 -3 -21 -12 -21 -19 0 -8 -4
-14 -10 -14 -5 0 -10 16 -10 36 0 32 2 35 27 32 14 -2 28 -9 31 -16z m37 -12
c-5 -23 -3 -30 9 -30 10 0 16 9 16 24 0 14 5 28 10 31 16 10 12 -51 -5 -65
-24 -20 -45 -4 -45 35 0 19 5 35 11 35 7 0 8 -11 4 -30z m123 -8 c-10 -2 -21
-14 -24 -28 -9 -37 -22 -29 -20 15 1 38 1 38 31 28 22 -8 25 -12 13 -15z
m-340 -14 c18 -18 14 -46 -9 -58 -16 -9 -25 -8 -40 6 -10 9 -19 22 -19 29 0
16 21 35 40 35 9 0 21 -5 28 -12z m393 2 c10 -6 19 -15 19 -21 0 -6 -7 -6 -20
1 -25 13 -26 2 -2 -17 16 -13 15 -14 -5 -8 -27 8 -30 -3 -5 -21 22 -17 -1 -19
-27 -2 -18 11 -18 14 -3 45 18 37 17 37 43 23z m-481 -40 c0 -5 -7 -10 -15
-10 -18 0 -20 -26 -3 -36 6 -4 17 1 25 11 12 18 13 18 13 -3 0 -26 -26 -40
-49 -25 -21 13 -26 40 -11 58 14 17 40 20 40 5z m564 -23 c9 -14 7 -21 -6 -31
-10 -7 -18 -19 -18 -25 0 -7 -5 -9 -11 -6 -6 4 -8 13 -5 20 7 19 -5 27 -21 14
-18 -15 -16 -4 3 27 19 28 41 28 58 1z m-279 -39 c9 -23 19 -64 22 -90 l6 -48
-52 0 c-62 0 -69 10 -52 84 12 52 35 96 50 96 5 0 16 -19 26 -42z m-118 3
c-13 -16 -33 -50 -43 -75 -16 -38 -23 -46 -46 -46 -15 0 -29 4 -32 8 -7 12 38
76 71 101 15 11 23 21 17 21 -15 0 -92 -79 -100 -103 -4 -14 -12 -17 -27 -13
-12 3 -28 6 -36 6 -46 0 113 110 165 115 19 1 37 5 41 9 18 18 12 2 -10 -23z
m36 -41 c-9 -36 -17 -71 -19 -77 -4 -15 -64 -18 -64 -3 0 23 29 79 60 114 18
20 34 35 35 34 2 -2 -4 -32 -12 -68z m168 -25 c27 -57 25 -67 -13 -63 -30 3
-32 6 -44 63 -7 33 -16 69 -20 80 -13 37 57 -37 77 -80z m-1 80 c15 9 90 -29
139 -71 32 -28 39 -39 29 -45 -22 -15 -56 -10 -62 9 -7 19 -84 102 -97 102 -4
0 15 -23 42 -51 27 -28 49 -56 49 -64 0 -7 -14 -15 -30 -17 -28 -4 -32 -1 -56
51 -14 31 -35 67 -47 80 l-22 24 23 -12 c12 -7 27 -9 32 -6z m-472 -29 c-2 -7
8 -23 22 -34 19 -16 21 -21 9 -22 -9 0 -22 6 -29 14 -6 8 -19 12 -27 9 -12 -5
-14 -3 -8 8 21 37 38 50 33 25z m746 -28 c20 -28 11 -38 -10 -12 -15 18 -15
18 -9 -3 7 -24 -10 -33 -18 -10 -2 6 -8 9 -12 4 -5 -4 -3 -13 3 -19 20 -20 13
-32 -8 -13 -26 23 -25 32 3 56 28 24 33 23 51 -3z m-790 -33 c-4 -9 3 -19 20
-26 14 -7 26 -16 26 -21 0 -12 -14 -10 -36 6 -13 10 -23 11 -31 4 -17 -14 -17
6 -1 32 15 23 30 27 22 5z m834 -47 c2 -19 -3 -30 -19 -38 -18 -10 -25 -9 -43
9 l-21 22 25 19 c33 26 54 21 58 -12z m-690 3 c11 -7 11 -18 -5 -61 l-18 -52
-38 5 c-21 3 -41 8 -44 10 -3 3 7 28 23 56 27 51 50 63 82 42z m596 -42 c16
-28 26 -52 24 -54 -2 -2 -22 -7 -43 -10 l-40 -7 -17 50 c-10 27 -18 52 -18 55
0 5 24 12 56 16 6 0 23 -22 38 -50z m-503 16 c0 -5 -3 -32 -6 -58 -6 -37 -11
-47 -22 -43 -8 3 -28 6 -45 6 -28 0 -30 2 -23 27 3 15 12 41 20 59 12 29 16
31 45 25 17 -3 31 -10 31 -16z m414 -36 c9 -28 15 -52 14 -53 -2 -2 -22 -6
-45 -9 l-41 -7 -10 55 c-10 58 -8 61 44 64 17 1 25 -9 38 -50z m-645 32 c22
-6 23 -8 6 -14 -12 -5 -17 -14 -13 -27 7 -28 -4 -25 -36 8 -37 39 -21 51 43
33z m320 -15 c0 -13 -3 -38 -6 -55 -6 -28 -10 -31 -46 -31 l-40 0 6 38 c13 69
15 72 52 72 29 0 34 -3 34 -24z m224 7 c3 -10 8 -35 12 -55 l6 -38 -40 0 c-41
0 -41 0 -48 46 -5 34 -3 48 7 55 23 15 57 10 63 -8z m-82 -40 c3 -27 3 -51 1
-55 -4 -8 -126 -11 -134 -4 -2 2 -2 27 -1 55 l4 51 63 0 63 0 4 -47z m398 22
c0 -3 -11 -10 -25 -15 -36 -14 -32 -34 5 -26 17 3 30 1 30 -3 0 -12 -56 -25
-70 -16 -18 11 -11 45 13 55 25 10 47 12 47 5z m-875 -57 c7 -8 4 -9 -12 -5
-27 6 -32 -17 -7 -27 28 -11 8 -18 -30 -11 -41 8 -47 20 -14 29 22 5 23 6 3
21 -19 16 -18 16 15 11 19 -4 39 -11 45 -18z m123 -13 c2 -2 0 -30 -4 -64 l-7
-61 -48 0 c-46 0 -49 2 -49 26 0 14 5 45 11 70 l11 44 42 -6 c22 -4 42 -8 44
-9z m666 -1 c3 -9 9 -40 12 -70 l7 -54 -52 0 c-43 0 -51 3 -51 19 0 10 -3 39
-6 64 -6 44 -6 46 22 50 55 8 62 7 68 -9z m-588 -10 c28 -5 29 -7 26 -60 l-4
-54 -50 0 -51 0 7 38 c3 20 6 47 6 60 0 23 13 27 66 16z m484 -16 c0 -13 3
-40 6 -60 l7 -38 -52 0 -51 0 0 54 c0 58 4 62 63 65 22 1 27 -3 27 -21z m213
1 c6 -10 7 -24 2 -35 -8 -17 -9 -15 -13 9 -4 36 -38 34 -34 -2 1 -14 -2 -21
-10 -19 -21 7 -22 41 -2 55 23 16 43 13 57 -8z m-595 5 c19 -6 22 -13 22 -55
l0 -49 -45 0 c-44 0 -45 1 -45 33 0 72 13 85 68 71z m276 -10 c3 -9 6 -33 6
-55 l0 -39 -45 0 -45 0 0 49 c0 39 4 51 18 54 36 10 60 6 66 -9z m-94 -44 l0
-50 -75 0 -75 0 0 50 0 50 75 0 75 0 0 -50z m-502 -12 c3 -27 1 -28 -37 -28
-36 0 -41 3 -41 23 0 32 9 38 45 35 24 -2 31 -8 33 -30z m897 -20 c31 -14 28
-28 -11 -44 -30 -13 -30 -13 -30 22 1 38 4 39 41 22z m-905 -43 c-10 -12 -10
-19 -2 -27 21 -21 13 -27 -20 -16 -49 16 -53 25 -22 42 40 21 61 21 44 1z
m145 -40 c4 -31 6 -57 4 -59 -2 -2 -22 -6 -45 -9 l-41 -7 -11 51 c-18 79 -18
79 37 79 l50 0 6 -55z m105 21 c0 -19 3 -41 6 -49 4 -11 -5 -17 -36 -22 -23
-4 -45 -3 -50 1 -4 5 -10 30 -14 57 l-6 47 50 0 50 0 0 -34z m100 -10 c0 -42
-1 -44 -36 -51 -20 -3 -38 -4 -41 -1 -3 3 -8 25 -10 51 l-6 45 47 0 46 0 0
-44z m160 -1 l0 -45 -75 0 -75 0 0 45 0 45 75 0 75 0 0 -45z m97 0 c-2 -26 -7
-48 -10 -51 -3 -3 -21 -2 -41 1 -35 7 -36 9 -36 51 l0 44 46 0 47 0 -6 -45z
m107 -2 c-4 -27 -10 -52 -14 -56 -4 -4 -24 -5 -46 -2 l-39 7 3 49 4 49 49 0
49 0 -6 -47z m116 32 c0 -7 -5 -37 -11 -65 l-11 -51 -36 7 c-51 9 -55 15 -47
73 l7 51 49 0 c36 0 49 -4 49 -15z m91 -72 c-10 -17 -10 -17 -11 0 0 11 -8 17
-24 17 -14 0 -28 5 -32 11 -5 8 3 10 25 7 18 -3 35 0 39 6 11 18 14 -22 3 -41z
m-902 -9 c2 -2 -5 -7 -15 -10 -10 -4 -27 -14 -36 -22 -11 -9 -18 -11 -18 -4 0
6 5 14 11 17 6 5 4 12 -8 21 -16 13 -14 14 22 8 22 -4 42 -8 44 -10z m340 -80
c1 -31 -15 -43 -56 -44 -8 0 -33 77 -33 105 0 2 17 5 38 7 41 3 49 -8 51 -68z
m142 72 c2 -2 2 -27 1 -55 l-4 -51 -63 0 -63 0 -4 51 c-1 28 -1 53 1 55 6 5
126 5 132 0z m99 -12 c0 -1 -5 -26 -11 -55 -11 -50 -12 -51 -42 -45 -17 3 -32
8 -35 10 -2 3 -1 26 3 53 l6 48 40 -3 c21 -2 39 -6 39 -8z m315 -5 c7 -8 0 -9
-25 -4 -19 4 -39 12 -45 17 -7 7 1 9 25 4 19 -3 39 -11 45 -17z m-647 -41 c5
-29 9 -54 8 -55 -1 -2 -17 -6 -34 -9 -29 -6 -33 -4 -46 27 -30 74 -30 77 6 82
18 2 38 5 44 5 6 1 16 -22 22 -50z m430 37 c1 -1 -6 -24 -16 -51 -17 -46 -20
-49 -51 -47 -18 0 -34 3 -36 5 -2 1 1 27 7 55 l11 53 41 -6 c22 -4 42 -8 44
-9z m-672 -29 c-4 -18 -2 -25 11 -28 14 -3 10 -8 -16 -22 -28 -15 -35 -15 -42
-4 -13 20 -6 53 11 53 8 0 19 6 23 13 13 20 20 14 13 -12z m152 -28 c12 -28
21 -52 19 -53 -1 -1 -17 -5 -34 -8 -31 -6 -34 -4 -63 46 -32 57 -29 65 31 66
21 1 28 -7 47 -51z m604 44 c16 -6 15 -12 -13 -60 -27 -48 -32 -52 -57 -46
-15 4 -29 8 -31 10 -1 1 5 25 14 53 15 45 20 51 43 50 15 0 35 -3 44 -7z m99
-2 c43 -24 9 -82 -36 -62 -29 13 -33 46 -7 61 21 13 20 13 43 1z m-805 -107
c25 -9 15 -21 -22 -25 -45 -5 -50 4 -22 43 21 29 23 30 26 9 2 -11 10 -24 18
-27z m765 22 c32 -17 30 -35 -4 -35 -17 0 -19 -2 -7 -10 28 -18 1 -22 -29 -4
-34 20 -32 34 7 34 25 0 25 1 6 15 -25 19 -11 19 27 0z m-465 -63 c7 -31 16
-66 20 -77 6 -16 5 -18 -7 -7 -16 15 -33 16 -23 1 4 -7 -12 -1 -36 12 -38 22
-119 105 -109 113 2 2 18 6 34 9 28 5 31 2 54 -49 22 -52 51 -89 51 -66 0 6
-5 14 -10 17 -11 7 -34 49 -44 82 -6 18 -3 22 21 25 15 2 30 2 33 0 2 -2 10
-29 16 -60z m111 24 c-8 -58 -36 -126 -52 -126 -16 0 -44 68 -52 126 l-6 44
58 0 58 0 -6 -44z m77 10 c-12 -38 -32 -71 -60 -99 -15 -15 -28 -26 -30 -25
-1 2 5 32 13 68 9 36 17 70 19 76 1 6 15 9 33 6 27 -4 31 -8 25 -26z m85 8 c8
-7 -56 -78 -95 -105 -54 -37 -62 -37 -31 0 13 16 33 50 43 75 18 44 21 46 49
40 17 -3 32 -8 34 -10z m339 -43 c-5 -29 -8 -54 -6 -55 2 -1 27 -12 57 -23
l54 -20 -59 -33 c-32 -18 -73 -41 -90 -52 l-32 -18 -22 62 c-29 78 -33 83 -60
68 -18 -10 -24 -9 -31 1 -4 8 -5 17 -1 20 9 9 196 109 198 106 1 -1 -2 -26 -8
-56z m-921 -66 c-2 -5 -17 -10 -32 -10 -25 0 -30 -6 -45 -49 -9 -28 -21 -51
-26 -53 -6 -2 -47 14 -92 34 l-82 38 50 20 c27 11 50 25 50 31 0 6 -7 31 -15
54 -8 23 -15 44 -15 46 0 2 47 -20 105 -48 58 -29 104 -57 102 -63z m155 83
c9 -13 33 -40 54 -61 38 -37 38 -38 10 -27 -54 20 -139 87 -130 101 10 17 52
9 66 -13z m493 13 c10 -17 -137 -122 -152 -108 -3 3 6 13 20 22 14 9 37 34 52
55 27 39 65 54 80 31z m-404 -261 l24 -20 -37 6 c-37 6 -38 6 -38 -25 0 -26 4
-31 23 -30 12 0 16 3 10 6 -23 9 -15 35 9 31 47 -6 25 -68 -23 -68 -48 0 -67
76 -27 104 29 20 31 20 59 -4z m104 -41 c18 -52 13 -77 -9 -46 -17 22 -35 22
-52 0 -21 -30 -24 -10 -7 45 22 70 45 70 68 1z m55 34 c10 -17 10 -17 20 0 6
9 18 17 26 17 12 0 11 -5 -5 -29 -12 -16 -21 -41 -21 -55 0 -14 -4 -26 -10
-26 -5 0 -10 10 -10 21 0 12 -9 37 -21 55 -17 28 -18 34 -5 34 8 0 20 -8 26
-17z m139 -35 c15 -48 8 -78 -10 -45 -12 21 -38 22 -45 2 -10 -26 -27 -16 -21
13 19 95 52 107 76 30z"/>
<path d="M660 1210 c0 -5 5 -10 10 -10 6 0 10 5 10 10 0 6 -4 10 -10 10 -5 0
-10 -4 -10 -10z"/>
<path d="M474 1166 c-7 -19 3 -36 22 -36 10 0 14 8 12 22 -4 26 -26 36 -34 14z"/>
<path d="M960 1110 c0 -5 5 -10 10 -10 6 0 10 5 10 10 0 6 -4 10 -10 10 -5 0
-10 -4 -10 -10z"/>
<path d="M1070 960 c-12 -7 -12 -12 -3 -21 9 -9 16 -9 27 1 26 21 5 39 -24 20z"/>
<path d="M201 754 c0 -11 3 -14 6 -6 3 7 2 16 -1 19 -3 4 -6 -2 -5 -13z"/>
<path d="M231 754 c0 -11 3 -14 6 -6 3 7 2 16 -1 19 -3 4 -6 -2 -5 -13z"/>
<path d="M230 521 c0 -6 5 -13 10 -16 6 -3 10 1 10 9 0 9 -4 16 -10 16 -5 0
-10 -4 -10 -9z"/>
<path d="M1092 534 c2 -11 11 -20 22 -22 13 -3 17 1 14 14 -2 11 -11 20 -22
22 -13 3 -17 -1 -14 -14z"/>
<path d="M285 450 c-3 -5 -1 -10 4 -10 6 0 11 5 11 10 0 6 -2 10 -4 10 -3 0
-8 -4 -11 -10z"/>
<path d="M620 140 c0 -5 5 -10 10 -10 6 0 10 5 10 10 0 6 -4 10 -10 10 -5 0
-10 -4 -10 -10z"/>
<path d="M821 144 c0 -11 3 -14 6 -6 3 7 2 16 -1 19 -3 4 -6 -2 -5 -13z"/>
</g>
</svg>
